<svg width="25" height="26" viewBox="0 0 25 26" fill="none" xmlns="http://www.w3.org/2000/svg">
<g clip-path="url(#clip0)">
<g filter="url(#filter0_f)">
<path d="M0.614258 25.1067L2.28752 19.0014C1.25869 17.2149 0.710333 15.1855 0.71599 13.1109C0.71599 6.6098 6.00723 1.32422 12.5083 1.32422C15.6627 1.32422 18.6249 2.55095 20.8466 4.77823C23.0739 7.00551 24.3006 9.96773 24.295 13.1165C24.295 19.6175 19.0037 24.9032 12.5027 24.9032H12.497C10.5241 24.9032 8.58505 24.4058 6.86088 23.4673L0.614258 25.1067ZM7.15486 21.3304L7.51097 21.5453C9.01471 22.4384 10.7389 22.9076 12.497 22.9133H12.5027C17.9014 22.9133 22.2994 18.5208 22.2994 13.1165C22.2994 10.4991 21.2819 8.04009 19.4333 6.1858C17.5848 4.3316 15.12 3.31409 12.5027 3.31409C7.09828 3.31409 2.7002 7.70651 2.7002 13.1108C2.7002 14.9594 3.21462 16.7627 4.19829 18.323L4.43004 18.6961L3.44081 22.3084L7.15486 21.3304Z" fill="black" fill-opacity="0.24"/>
</g>
<path d="M1.14893 24.4766L2.74562 18.6536C1.76105 16.9456 1.24313 15.0087 1.24383 13.0372C1.24383 6.84017 6.29083 1.79883 12.4821 1.79883C15.4914 1.79883 18.3108 2.97123 20.4323 5.09268C22.5537 7.21423 23.7207 10.0392 23.7207 13.0428C23.7207 19.2398 18.6737 24.2811 12.4822 24.2811H12.4767C10.5952 24.2811 8.74722 23.8066 7.10586 22.9133L1.14893 24.4767V24.4766Z" fill="url(#paint0_linear)"/>
<path d="M0.741211 24.8847L2.3937 18.8552C1.37765 17.091 0.836018 15.0867 0.841675 13.0378C0.841675 6.61749 6.06727 1.39746 12.4877 1.39746C15.6029 1.39746 18.5282 2.60888 20.7224 4.80856C22.922 7.00823 24.1335 9.93368 24.128 13.0434C24.128 19.4637 18.9024 24.6838 12.4819 24.6838H12.4765C10.5318 24.683 8.61826 24.1955 6.91029 23.2656L0.741211 24.8848V24.8847ZM7.20056 21.1553L7.55228 21.3675C9.03739 22.2496 10.7401 22.713 12.4765 22.7186H12.482C17.8137 22.7186 22.1572 18.3807 22.1572 13.0434C22.1572 10.4585 21.1523 8.02994 19.3267 6.19876C17.501 4.36759 15.0669 3.36265 12.482 3.36265C7.14477 3.36265 2.80131 7.70055 2.80131 13.0378C2.80131 14.8634 3.30929 16.6444 4.28076 18.1852L4.50968 18.5537L3.53265 22.1211L7.20056 21.1553Z" fill="white"/>
<path d="M9.57399 8.16335C9.35619 7.67761 9.12727 7.66639 8.92078 7.66083C8.75331 7.65527 8.55794 7.65527 8.36247 7.65527C8.16711 7.65527 7.8544 7.72784 7.58646 8.01811C7.31843 8.30848 6.57031 9.01193 6.57031 10.4468C6.57031 11.8759 7.61436 13.2605 7.75949 13.4559C7.90463 13.6513 9.77492 16.6828 12.7283 17.8496C15.1848 18.8211 15.6873 18.6257 16.2176 18.5754C16.7536 18.5252 17.9372 17.872 18.1828 17.1909C18.4228 16.5098 18.4228 15.9291 18.3503 15.8063C18.2777 15.6834 18.0823 15.611 17.7919 15.4657C17.5017 15.3206 16.0725 14.6171 15.8045 14.5167C15.5365 14.4162 15.3411 14.3715 15.1513 14.6618C14.9558 14.9521 14.3976 15.6053 14.2301 15.8008C14.0626 15.9961 13.8896 16.0185 13.5992 15.8733C13.3089 15.7282 12.371 15.421 11.26 14.4273C10.3947 13.6569 9.80847 12.7022 9.6409 12.4119C9.47343 12.1216 9.62422 11.9652 9.76936 11.8201C9.89772 11.6917 10.0596 11.4795 10.2049 11.3121C10.35 11.1446 10.4002 11.0218 10.4951 10.8263C10.59 10.631 10.5454 10.4635 10.4728 10.3184C10.4002 10.1731 9.83081 8.73833 9.57399 8.16335Z" fill="white"/>
</g>
<defs>
<filter id="filter0_f" x="0.0290305" y="0.738991" width="24.8512" height="24.9529" filterUnits="userSpaceOnUse" color-interpolation-filters="sRGB">
<feFlood flood-opacity="0" result="BackgroundImageFix"/>
<feBlend mode="normal" in="SourceGraphic" in2="BackgroundImageFix" result="shape"/>
<feGaussianBlur stdDeviation="0.292614" result="effect1_foregroundBlur"/>
</filter>
<linearGradient id="paint0_linear" x1="12.4343" y1="24.4751" x2="12.4343" y2="1.79747" gradientUnits="userSpaceOnUse">
<stop stop-color="#20B038"/>
<stop offset="1" stop-color="#60D66A"/>
</linearGradient>
<clipPath id="clip0">
<rect width="24.9697" height="25.0672" fill="white" transform="translate(0 0.625)"/>
</clipPath>
</defs>
</svg>
