<svg width="25" height="25" viewBox="0 0 25 25" fill="none" xmlns="http://www.w3.org/2000/svg">
<g clip-path="url(#clip0)">
<path d="M12.3296 0.405273C5.64979 0.405273 0.234863 5.8202 0.234863 12.5C0.234863 19.1797 5.64979 24.5947 12.3296 24.5947C19.0093 24.5947 24.4243 19.1797 24.4243 12.5C24.4243 5.8202 19.0093 0.405273 12.3296 0.405273Z" fill="#40B3E0"/>
<path d="M18.2144 7.36235L16.054 18.2541C16.054 18.2541 15.752 19.0094 14.9211 18.6469L9.93601 14.825L8.12332 13.9489L5.07186 12.9216C5.07186 12.9216 4.60357 12.7554 4.55822 12.3929C4.51286 12.0303 5.08698 11.834 5.08698 11.834L17.2172 7.07548C17.2172 7.07548 18.2143 6.63742 18.2143 7.36254" fill="white"/>
<path d="M9.55317 18.1314C9.55317 18.1314 9.40765 18.1178 9.22623 17.5437C9.04509 16.9697 8.12354 13.9485 8.12354 13.9485L15.4501 9.29578C15.4501 9.29578 15.8731 9.03896 15.858 9.29578C15.858 9.29578 15.9335 9.34114 15.7068 9.55261C15.4803 9.76417 9.95144 14.7341 9.95144 14.7341" fill="#D2E5F1"/>
<path d="M11.8482 16.2908L9.87649 18.0886C9.87649 18.0886 9.72228 18.2056 9.55371 18.1322L9.93129 14.793" fill="#B5CFE4"/>
</g>
<defs>
<clipPath id="clip0">
<rect width="24.1894" height="24.1894" fill="white" transform="translate(0.234863 0.405273)"/>
</clipPath>
</defs>
</svg>
