<svg width="90" height="99" viewBox="0 0 90 99" fill="none" xmlns="http://www.w3.org/2000/svg">
<path d="M36.5395 5.14984C43.0376 1.00135 49.5351 1.41726 56.2807 5.14984C59.5133 6.93859 61.6124 8.22393 63.2698 11.5259C64.7037 14.3826 65.1137 16.4823 64.4959 19.6185C63.7953 23.1758 59.7575 23.7411 59.3461 27.3433C58.7793 32.3057 63.2698 34.1951 66.2126 38.1335C69.1597 42.0778 67.8066 50.6403 67.8066 50.6403L63.8829 41.4441C63.8829 41.4441 66.1295 48.8466 65.4769 53.5831C64.9475 57.4251 62.2337 59.0282 62.0436 62.9019C61.9324 65.168 61.3729 66.8845 62.7793 68.6648C64.6938 71.0883 70.6267 69.6458 70.6267 69.6458C70.6267 69.6458 68.487 73.4906 66.2126 74.9182C63.452 76.651 61.2491 76.1687 57.9973 76.3896C47.523 77.1013 40.709 74.8801 32.248 68.6648C27.6888 65.3157 24.5138 63.3326 22.3161 58.1199C20.4651 53.7294 20.4602 50.7038 21.0899 45.9809C22.0442 38.825 29.0916 36.8579 29.7957 29.673C30.2296 25.2451 27.5228 22.7894 28.2017 18.3923C29.1341 12.3527 31.3885 8.43834 36.5395 5.14984Z" fill="url(#paint0_linear)"/>
<path d="M44.2644 16.9217C47.549 14.751 51.1309 9.44214 51.8666 10.5457C53.4869 12.9761 52.3571 15.9408 52.3571 18.2705C52.3571 19.64 54.6868 19.8645 54.6868 20.1097C54.6868 20.7228 53.7077 20.6183 53.4606 21.2133C53.2403 21.7439 53.4606 22.6846 53.4606 22.6846C53.4606 22.6846 53.6342 24.8696 52.9701 25.9953C52.4709 26.8415 52.1134 27.7119 51.1309 27.7119C47.8203 27.7119 45.8584 26.9762 45.8584 26.9762V31.513C45.8584 31.513 50.0274 34.5784 52.9701 36.4176C54.1917 37.1811 53.9511 39.9735 53.9511 39.9735C53.9511 39.9735 53.8008 44.2477 53.4606 46.9626C52.8251 52.0338 50.2471 54.6109 50.5178 59.7146C50.8575 66.1189 56.7712 76.8808 56.7712 76.8808C56.7712 76.8808 52.1547 79.2447 48.3107 80.6819C42.5697 82.8284 32.6159 80.6819 32.6159 80.6819C32.6159 80.6819 31.5463 77.6681 31.2671 75.6547C30.9581 73.4254 30.3654 71.9537 31.2671 69.8917C32.2328 67.6837 35.9265 65.8454 35.9265 65.8454L39.9729 63.2705V59.7146L38.5015 55.1778L36.5396 51.622V58.1206L37.9497 64.5579L33.8421 67.6556L31.2671 53.9517L29.7958 46.9626C29.7958 46.9626 29.4912 44.1273 29.4279 42.3032C29.3781 40.8675 29.4279 38.6247 29.4279 38.6247C29.4279 38.6247 29.4075 37.2004 29.7958 36.4176C30.2624 35.4768 30.9115 35.2005 31.7576 34.5784C32.9653 33.6903 33.833 33.4967 35.1909 32.8618C36.3756 32.3078 37.3284 32.4348 38.2562 31.513C39.3736 30.4028 39.3221 29.2614 39.605 27.7119C39.9233 25.969 39.605 23.1751 39.605 23.1751C39.605 23.1751 38.185 23.1924 37.5206 22.6846C36.6655 22.0313 36.205 21.5423 36.0492 20.4776C35.9452 19.7669 36.1473 18.8721 36.5396 18.2705C36.938 17.6596 37.5308 17.4591 38.2562 17.5348C39.2334 17.6368 39.9729 19.374 39.9729 19.374C39.9729 19.374 42.654 17.986 44.2644 16.9217Z" fill="white"/>
<path d="M32.4932 38.6247C32.2165 37.0089 32.1254 34.3331 32.1254 34.3331L32.8611 33.8427C32.8611 33.8427 33.0534 36.035 33.2289 37.2759C33.6603 40.3259 33.9939 42.0341 34.8229 45.0007C35.9693 49.1031 38.7466 55.1778 38.7466 55.1778C38.7466 55.1778 40.6348 56.244 41.9346 56.1588L41.935 56.1587C43.0086 56.0883 43.8563 56.0328 44.5096 55.1778C45.0173 54.5134 44.838 53.9138 45 53.0934C45.2809 51.6716 45.3133 50.8533 45.4905 49.4149C45.7026 47.6935 45.7837 46.7239 45.981 45.0007C46.1674 43.3721 46.2357 42.454 46.4714 40.8318C46.7794 38.7126 47.0287 37.5358 47.4523 35.4367C47.6363 34.5253 47.9428 32.9844 47.9428 32.9844L48.4333 33.3522C48.4333 33.3522 47.8138 36.6475 47.4523 38.6247C46.914 41.5693 46.4714 46.2269 46.4714 46.2269C46.2889 47.4732 46.1532 48.1671 45.981 49.4149C45.7567 51.0388 45.5715 51.9465 45.4905 53.5838C45.4314 54.7795 45.4905 55.4521 45.4905 56.6492C45.4905 59.1392 45.0756 60.5701 45.4905 63.0252C46.0239 66.1816 48.5559 70.6274 48.5559 70.6274C48.5559 70.6274 45.611 72.2195 43.7739 73.325C42.0211 74.3797 40.968 74.881 39.3597 76.1451C38.0808 77.1504 37.3592 77.7356 36.2943 78.9653C35.5545 79.8196 34.5777 81.295 34.5777 81.295H32.0028L31.0218 74.3059C31.0218 74.3059 30.6332 72.0104 31.0218 70.6274C31.364 69.4095 31.7669 68.7452 32.6158 67.8073C33.74 66.5652 36.2943 65.6002 36.2943 65.6002L38.7466 64.0062C38.7466 64.0062 39.61 63.5541 39.7275 63.0252C39.9728 61.9217 39.94 61.138 39.7275 59.9599C39.4798 58.586 38.893 57.9471 38.3788 56.6492C37.5304 54.5077 37.1332 53.2768 36.2943 51.1315C35.7309 49.6906 35.3371 48.9123 34.8229 47.453C34.2086 45.7097 33.9416 44.7045 33.4741 42.9163C33.0394 41.253 32.7834 40.3192 32.4932 38.6247Z" fill="#172654"/>
<path d="M53.7073 45.7352C54.075 46.2258 55.1203 46.5947 55.6686 47.4524C56.2072 48.2949 56.3975 48.9051 56.4036 49.905C56.4086 50.7412 56.3143 51.2559 55.9125 51.9893C55.4894 52.7613 54.9902 53.0144 54.318 53.5828C53.314 54.4318 51.0069 55.1758 51.0069 55.1758C51.0069 55.1758 53.3396 45.2446 53.7073 45.7352Z" fill="#172654"/>
<path d="M34.0037 12.0156C34.0037 12.0156 35.5659 13.0833 36.0089 14.1322C36.4998 15.2944 36.0089 17.3628 36.0089 17.3628C36.0089 17.3628 34.4009 16.0831 34.0037 14.912C33.6405 13.8408 34.0037 12.0156 34.0037 12.0156Z" fill="#172654"/>
<path d="M37.7532 9.11381C37.7532 9.11381 38.921 10.4739 39.0692 11.5425C39.2334 12.7264 38.2771 14.4989 38.2771 14.4989C38.2771 14.4989 37.1193 12.9335 37.043 11.7644C36.9732 10.695 37.7532 9.11381 37.7532 9.11381Z" fill="#172654"/>
<path d="M40.7258 6.67722C40.7258 6.67722 41.5194 8.01637 41.485 8.95242C41.4469 9.9896 40.3619 11.3611 40.3619 11.3611C40.3619 11.3611 39.6079 9.84794 39.7189 8.83671C39.8205 7.91176 40.7258 6.67722 40.7258 6.67722Z" fill="#172654"/>
<path d="M45.956 11.2996C45.956 11.2996 44.9717 12.3425 44.134 12.5498C43.2059 12.7795 41.7158 12.1671 41.7158 12.1671C41.7158 12.1671 42.8642 11.115 43.7879 10.9564C44.6327 10.8114 45.956 11.2996 45.956 11.2996Z" fill="#172654"/>
<path d="M44.2324 3.50559C44.2324 3.50559 44.9728 5.04751 44.8455 6.06886C44.7044 7.20055 43.3853 8.59792 43.3853 8.59792C43.3853 8.59792 42.7048 6.86933 42.9232 5.77302C43.123 4.77025 44.2324 3.50559 44.2324 3.50559Z" fill="#172654"/>
<path d="M49.0858 8.25816C49.0858 8.25816 47.788 9.37241 46.7685 9.5138C45.6389 9.67047 43.9477 8.75797 43.9477 8.75797C43.9477 8.75797 45.4413 7.65331 46.5568 7.58052C47.5771 7.51394 49.0858 8.25816 49.0858 8.25816Z" fill="#172654"/>
<path d="M52.0286 5.3148C52.0286 5.3148 50.7309 6.42905 49.7114 6.57044C48.5818 6.72711 46.8906 5.81461 46.8906 5.81461C46.8906 5.81461 48.3842 4.70995 49.4996 4.63716C50.5199 4.57059 52.0286 5.3148 52.0286 5.3148Z" fill="#172654"/>
<path d="M47.8196 0.0778493C47.8196 0.0778493 48.4556 1.61758 48.2761 2.60383C48.0773 3.69662 46.7184 4.98354 46.7184 4.98354C46.7184 4.98354 46.1509 3.26555 46.423 2.21139C46.672 1.24717 47.8196 0.0778493 47.8196 0.0778493Z" fill="#172654"/>
<path d="M44.597 15.1329C44.597 15.1329 42.9938 16.1463 41.8526 16.1372C40.5881 16.1271 38.8799 14.8536 38.8799 14.8536C38.8799 14.8536 40.6963 13.8824 41.9317 13.9822C43.0618 14.0735 44.597 15.1329 44.597 15.1329Z" fill="#172654"/>
<path d="M46.5938 15.9395C46.5938 15.9395 47.9985 16.834 49.0172 16.9849C49.5969 17.0708 50.5175 16.9849 50.5175 16.9849V18.1465C50.5175 18.1465 49.0212 17.9286 48.2094 17.4496C47.4666 17.0112 46.5938 15.9395 46.5938 15.9395Z" fill="#172654"/>
<path d="M45.1226 13.4873L50.5177 13.7325V14.7135C50.5177 14.7135 49.333 14.3054 48.5395 14.1004C47.2492 13.767 45.1226 13.4873 45.1226 13.4873Z" fill="#FE0444"/>
<path d="M52.2339 23.7841C52.2339 23.7841 53.9232 22.202 53.9505 23.0634C53.9621 23.4279 53.5827 23.9102 53.5827 23.9102C53.5827 23.9102 54.1115 24.4529 53.9505 24.7801C53.8298 25.0253 53.1425 25.0937 52.847 24.7801C52.6017 24.5198 52.5565 24.4688 52.3565 24.0444C52.2339 23.7841 52.2339 23.7841 52.2339 23.7841Z" fill="#172654"/>
<path d="M4.37687 94.873C3.59824 94.873 2.84252 94.7768 2.10969 94.5845C1.37687 94.3921 0.78145 94.1356 0.323435 93.815L1.21656 91.8089C1.6471 92.0929 2.14634 92.3219 2.71427 92.4959C3.28221 92.67 3.84099 92.757 4.39061 92.757C5.43489 92.757 5.95702 92.4959 5.95702 91.9738C5.95702 91.699 5.80588 91.4975 5.50359 91.3692C5.21046 91.2318 4.73412 91.0898 4.07458 90.9433C3.35092 90.7875 2.74634 90.6226 2.26084 90.4486C1.77534 90.2654 1.35855 89.9768 1.01046 89.583C0.662366 89.1891 0.488321 88.6578 0.488321 87.9891C0.488321 87.4028 0.648626 86.8761 0.969237 86.4089C1.28985 85.9326 1.76618 85.557 2.39824 85.2822C3.03947 85.0074 3.82267 84.87 4.74786 84.87C5.37992 84.87 6.00282 84.9433 6.61657 85.0898C7.23031 85.2272 7.77076 85.4333 8.23794 85.7081L7.39977 87.728C6.48374 87.2333 5.59519 86.986 4.73412 86.986C4.19366 86.986 3.79977 87.0684 3.55244 87.2333C3.30511 87.3891 3.18145 87.5952 3.18145 87.8517C3.18145 88.1081 3.32802 88.3005 3.62115 88.4288C3.91428 88.557 4.38603 88.6898 5.03641 88.8272C5.76924 88.983 6.37382 89.1524 6.85015 89.3356C7.33565 89.5097 7.75244 89.7936 8.10053 90.1875C8.45779 90.5723 8.63641 91.099 8.63641 91.7677C8.63641 92.3448 8.47611 92.8669 8.1555 93.3341C7.83489 93.8013 7.35397 94.1768 6.71275 94.4608C6.07153 94.7356 5.2929 94.873 4.37687 94.873ZM24.9802 85.0623L21.8611 94.6807H18.9481L17.1069 88.8272L15.1832 94.6807H12.2702L9.15114 85.0623H11.9542L13.8916 91.2043L15.9252 85.0623H18.426L20.3634 91.2593L22.3832 85.0623H24.9802ZM33.6771 92.5784V94.6807H25.955V85.0623H33.4985V87.1646H28.6481V88.786H32.9214V90.8196H28.6481V92.5784H33.6771ZM42.909 92.5784V94.6807H35.1868V85.0623H42.7304V87.1646H37.88V88.786H42.1533V90.8196H37.88V92.5784H42.909ZM46.466 87.2196H43.5118V85.0623H52.1271V87.2196H49.1867V94.6807H46.466V87.2196ZM63.5836 89.6654H65.9882V93.6501C65.4386 94.044 64.8065 94.3463 64.092 94.557C63.3775 94.7677 62.663 94.873 61.9485 94.873C60.9409 94.873 60.034 94.6623 59.2279 94.241C58.4218 93.8104 57.7898 93.215 57.3317 92.4547C56.8737 91.6944 56.6447 90.8333 56.6447 89.8715C56.6447 88.9097 56.8737 88.0486 57.3317 87.2883C57.7898 86.528 58.4264 85.9372 59.2417 85.5158C60.0569 85.0852 60.9775 84.87 62.0035 84.87C62.9012 84.87 63.7073 85.0211 64.4218 85.3234C65.1363 85.6257 65.7317 86.0608 66.2081 86.6288L64.4768 88.1952C63.8264 87.4807 63.0478 87.1234 62.1409 87.1234C61.3165 87.1234 60.6523 87.3753 60.1485 87.8791C59.6447 88.3738 59.3928 89.0379 59.3928 89.8715C59.3928 90.4028 59.5073 90.8791 59.7363 91.3005C59.9653 91.7127 60.2859 92.0379 60.6982 92.2761C61.1104 92.5051 61.5821 92.6196 62.1134 92.6196C62.6356 92.6196 63.1256 92.5143 63.5836 92.3036V89.6654ZM67.7131 85.0623H70.4337V94.6807H67.7131V85.0623ZM76.5739 92.1249H75.0899V94.6807H72.3693V85.0623H76.7662C77.6364 85.0623 78.3922 85.2089 79.0334 85.502C79.6746 85.786 80.1693 86.1982 80.5174 86.7387C80.8655 87.27 81.0395 87.8975 81.0395 88.6211C81.0395 89.3173 80.8746 89.9265 80.5448 90.4486C80.2242 90.9616 79.7616 91.3646 79.1571 91.6578L81.2319 94.6807H78.3189L76.5739 92.1249ZM78.2914 88.6211C78.2914 88.1723 78.1494 87.8242 77.8655 87.5768C77.5815 87.3295 77.1601 87.2059 76.6013 87.2059H75.0899V90.0226H76.6013C77.1601 90.0226 77.5815 89.9036 77.8655 89.6654C78.1494 89.4181 78.2914 89.07 78.2914 88.6211ZM82.5404 85.0623H85.261V92.5234H89.8504V94.6807H82.5404V85.0623Z" fill="url(#paint1_linear)"/>
<defs>
<linearGradient id="paint0_linear" x1="20.7129" y1="39.3549" x2="70.6267" y2="39.3549" gradientUnits="userSpaceOnUse">
<stop stop-color="#E52D27"/>
<stop offset="1" stop-color="#B31217"/>
</linearGradient>
<linearGradient id="paint1_linear" x1="0" y1="89.7265" x2="90" y2="89.7265" gradientUnits="userSpaceOnUse">
<stop stop-color="#E52D27"/>
<stop offset="1" stop-color="#B31217"/>
</linearGradient>
</defs>
</svg>
