<svg width="24" height="24" viewBox="0 0 24 24" fill="none" xmlns="http://www.w3.org/2000/svg">
<path fill-rule="evenodd" clip-rule="evenodd" d="M12 1.5C9.21523 1.5 6.54451 2.60625 4.57538 4.57538C2.60625 6.54451 1.5 9.21523 1.5 12C1.5 14.7848 2.60625 17.4555 4.57538 19.4246C6.54451 21.3938 9.21523 22.5 12 22.5C14.7848 22.5 17.4555 21.3938 19.4246 19.4246C21.3938 17.4555 22.5 14.7848 22.5 12C22.5 9.21523 21.3938 6.54451 19.4246 4.57538C17.4555 2.60625 14.7848 1.5 12 1.5ZM12 -1.04907e-06C8.8174 -1.3273e-06 5.76516 1.26428 3.51472 3.51472C1.26428 5.76515 1.3273e-06 8.8174 1.04907e-06 12C7.70842e-07 15.1826 1.26428 18.2348 3.51472 20.4853C5.76515 22.7357 8.8174 24 12 24C15.1826 24 18.2348 22.7357 20.4853 20.4853C22.7357 18.2348 24 15.1826 24 12C24 8.8174 22.7357 5.76515 20.4853 3.51472C18.2348 1.26428 15.1826 -7.70842e-07 12 -1.04907e-06Z" fill="#13366C"/>
<path fill-rule="evenodd" clip-rule="evenodd" d="M17.0311 11.4696C16.9615 11.3998 16.8787 11.3444 16.7876 11.3065C16.6965 11.2687 16.5988 11.2493 16.5001 11.2493C16.4015 11.2493 16.3038 11.2687 16.2127 11.3065C16.1216 11.3444 16.0388 11.3998 15.9691 11.4696L12.0001 15.4401L8.03113 11.4696C7.8903 11.3288 7.69929 11.2497 7.50013 11.2497C7.30096 11.2497 7.10996 11.3288 6.96913 11.4696C6.8283 11.6104 6.74918 11.8014 6.74918 12.0006C6.74918 12.1998 6.8283 12.3908 6.96913 12.5316L11.4691 17.0316C11.5388 17.1015 11.6216 17.1569 11.7127 17.1947C11.8038 17.2325 11.9015 17.252 12.0001 17.252C12.0988 17.252 12.1965 17.2325 12.2876 17.1947C12.3787 17.1569 12.4615 17.1015 12.5311 17.0316L17.0311 12.5316C17.101 12.4619 17.1564 12.3792 17.1942 12.2881C17.232 12.1969 17.2515 12.0993 17.2515 12.0006C17.2515 11.902 17.232 11.8043 17.1942 11.7132C17.1564 11.622 17.101 11.5393 17.0311 11.4696Z" fill="#13366C"/>
<path fill-rule="evenodd" clip-rule="evenodd" d="M12 6.75C11.8011 6.75 11.6103 6.82902 11.4697 6.96967C11.329 7.11032 11.25 7.30109 11.25 7.5L11.25 15C11.25 15.1989 11.329 15.3897 11.4697 15.5303C11.6103 15.671 11.8011 15.75 12 15.75C12.1989 15.75 12.3897 15.671 12.5303 15.5303C12.671 15.3897 12.75 15.1989 12.75 15L12.75 7.5C12.75 7.30109 12.671 7.11032 12.5303 6.96967C12.3897 6.82902 12.1989 6.75 12 6.75Z" fill="#13366C"/>
</svg>
