<svg width="64" height="71" viewBox="0 0 64 71" fill="none" xmlns="http://www.w3.org/2000/svg">
<path d="M25.984 3.66192C30.6048 0.711879 35.2253 1.00764 40.0221 3.66192C42.3209 4.93392 43.8136 5.84793 44.9922 8.19598C46.0119 10.2274 46.3034 11.7206 45.8641 13.9507C45.3659 16.4804 42.4946 16.8823 42.202 19.4439C41.7989 22.9728 44.9922 24.3163 47.0848 27.117C49.1806 29.9218 48.2183 36.0107 48.2183 36.0107L45.4281 29.4712C45.4281 29.4712 47.0257 34.7351 46.5617 38.1033C46.1852 40.8355 44.2554 41.9754 44.1202 44.73C44.0412 46.3415 43.6433 47.5621 44.6434 48.8281C46.0048 50.5515 50.2238 49.5257 50.2238 49.5257C50.2238 49.5257 48.7022 52.2598 47.0848 53.275C45.1218 54.5072 43.5553 54.1642 41.2429 54.3213C33.7944 54.8274 28.9489 53.2479 22.9322 48.8281C19.6902 46.4466 17.4324 45.0363 15.8696 41.3295C14.5533 38.2074 14.5498 36.0558 14.9976 32.6973C15.6762 27.6087 20.6877 26.2098 21.1884 21.1006C21.4969 17.9519 19.5721 16.2056 20.0548 13.0788C20.7179 8.78393 22.3211 6.00041 25.984 3.66192Z" fill="url(#paint0_linear)"/>
<path d="M31.4773 12.0332C33.813 10.4896 36.3601 6.71442 36.8833 7.49916C38.0355 9.22743 37.2321 11.3357 37.2321 12.9923C37.2321 13.9662 38.8887 14.1259 38.8887 14.3003C38.8887 14.7362 38.1925 14.6619 38.0168 15.085C37.8601 15.4624 38.0168 16.1313 38.0168 16.1313C38.0168 16.1313 38.1403 17.685 37.668 18.4855C37.313 19.0873 37.0588 19.7062 36.3601 19.7062C34.0059 19.7062 32.6108 19.1831 32.6108 19.1831V22.4092C32.6108 22.4092 35.5754 24.5891 37.668 25.897C38.5367 26.4399 38.3656 28.4256 38.3656 28.4256C38.3656 28.4256 38.2587 31.465 38.0168 33.3956C37.5649 37.0018 35.7317 38.8344 35.9242 42.4637C36.1657 47.0179 40.371 54.6708 40.371 54.6708C40.371 54.6708 37.0882 56.3518 34.3547 57.3738C30.2721 58.9002 23.1939 57.3738 23.1939 57.3738C23.1939 57.3738 22.4333 55.2307 22.2348 53.7989C22.015 52.2137 21.5935 51.1671 22.2348 49.7008C22.9214 48.1306 25.5481 46.8234 25.5481 46.8234L28.4255 44.9924V42.4637L27.3792 39.2376L25.9841 36.709V41.3302L26.9868 45.9079L24.0658 48.1107L22.2348 38.3656L21.1885 33.3956C21.1885 33.3956 20.9719 31.3795 20.9269 30.0823C20.8914 29.0613 20.9269 27.4665 20.9269 27.4665C20.9269 27.4665 20.9124 26.4537 21.1885 25.897C21.5203 25.2279 21.9819 25.0315 22.5836 24.5891C23.4423 23.9576 24.0594 23.8199 25.025 23.3684C25.8675 22.9744 26.545 23.0647 27.2048 22.4092C27.9994 21.6198 27.9627 20.8081 28.1639 19.7062C28.3902 18.4668 28.1639 16.4801 28.1639 16.4801C28.1639 16.4801 27.1542 16.4924 26.6817 16.1313C26.0736 15.6667 25.7461 15.319 25.6353 14.5618C25.5614 14.0564 25.7051 13.4202 25.9841 12.9923C26.2674 12.5579 26.689 12.4154 27.2048 12.4692C27.8997 12.5417 28.4255 13.7771 28.4255 13.7771C28.4255 13.7771 30.3321 12.79 31.4773 12.0332Z" fill="white"/>
<path d="M23.1061 27.4665C22.9094 26.3175 22.8446 24.4147 22.8446 24.4147L23.3677 24.0659C23.3677 24.0659 23.5045 25.6249 23.6293 26.5073C23.936 28.6762 24.1733 29.8909 24.7628 32.0005C25.578 34.9178 27.553 39.2376 27.553 39.2376C27.553 39.2376 28.8957 39.9957 29.82 39.9351L29.8203 39.9351C30.5837 39.8851 31.1865 39.8455 31.6511 39.2376C32.0122 38.7651 31.8846 38.3387 31.9999 37.7553C32.1996 36.7443 32.2226 36.1623 32.3487 35.1395C32.4995 33.9154 32.5572 33.2259 32.6974 32.0005C32.83 30.8424 32.8786 30.1896 33.0462 29.0359C33.2652 27.529 33.4425 26.6922 33.7437 25.1994C33.8745 24.5513 34.0925 23.4556 34.0925 23.4556L34.4413 23.7171C34.4413 23.7171 34.0008 26.0604 33.7437 27.4665C33.3609 29.5604 33.0462 32.8725 33.0462 32.8725C32.9164 33.7587 32.8199 34.2522 32.6974 35.1395C32.538 36.2943 32.4062 36.9398 32.3487 38.1041C32.3066 38.9543 32.3487 39.4326 32.3487 40.2839C32.3487 42.0546 32.0536 43.0721 32.3487 44.818C32.7279 47.0625 34.5285 50.224 34.5285 50.224C34.5285 50.224 32.4344 51.3561 31.1279 52.1422C29.8815 52.8922 29.1326 53.2487 27.989 54.1477C27.0796 54.8625 26.5664 55.2787 25.8091 56.1531C25.2831 56.7606 24.5884 57.8098 24.5884 57.8098H22.7574L22.0598 52.8398C22.0598 52.8398 21.7835 51.2074 22.0598 50.224C22.3032 49.3579 22.5896 48.8855 23.1933 48.2185C23.9928 47.3353 25.8091 46.649 25.8091 46.649L27.553 45.5155C27.553 45.5155 28.167 45.194 28.2506 44.818C28.425 44.0332 28.4016 43.4759 28.2506 42.6381C28.0744 41.6611 27.6571 41.2069 27.2914 40.2839C26.6881 38.761 26.4057 37.8857 25.8091 36.3602C25.4085 35.3355 25.1285 34.7821 24.7628 33.7444C24.326 32.5047 24.1361 31.7899 23.8037 30.5182C23.4945 29.3355 23.3125 28.6714 23.1061 27.4665Z" fill="#172654"/>
<path d="M38.1922 32.5229C38.4537 32.8717 39.197 33.134 39.5869 33.744C39.9699 34.3431 40.1052 34.777 40.1095 35.488C40.1131 36.0827 40.046 36.4487 39.7603 36.9702C39.4595 37.5192 39.1045 37.6991 38.6264 38.1034C37.9125 38.7071 36.2719 39.2362 36.2719 39.2362C36.2719 39.2362 37.9307 32.174 38.1922 32.5229Z" fill="#172654"/>
<path d="M24.1807 8.54443C24.1807 8.54443 25.2916 9.30367 25.6066 10.0496C25.9557 10.876 25.6066 12.3468 25.6066 12.3468C25.6066 12.3468 24.4632 11.4369 24.1807 10.6041C23.9224 9.84234 24.1807 8.54443 24.1807 8.54443Z" fill="#172654"/>
<path d="M26.8468 6.48079C26.8468 6.48079 27.6772 7.448 27.7826 8.20782C27.8994 9.04974 27.2193 10.3102 27.2193 10.3102C27.2193 10.3102 26.396 9.197 26.3417 8.36564C26.2921 7.60521 26.8468 6.48079 26.8468 6.48079Z" fill="#172654"/>
<path d="M28.9606 4.74768C28.9606 4.74768 29.5249 5.69996 29.5005 6.3656C29.4734 7.10314 28.7018 8.07842 28.7018 8.07842C28.7018 8.07842 28.1656 7.00241 28.2446 6.28331C28.3168 5.62557 28.9606 4.74768 28.9606 4.74768Z" fill="#172654"/>
<path d="M32.6798 8.03516C32.6798 8.03516 31.9798 8.77679 31.3842 8.92422C30.7242 9.08759 29.6645 8.65207 29.6645 8.65207C29.6645 8.65207 30.4812 7.90391 31.138 7.79116C31.7388 7.68803 32.6798 8.03516 32.6798 8.03516Z" fill="#172654"/>
<path d="M31.4541 2.49305C31.4541 2.49305 31.9806 3.58953 31.8901 4.31582C31.7898 5.12058 30.8518 6.11426 30.8518 6.11426C30.8518 6.11426 30.3679 4.88505 30.5232 4.10545C30.6653 3.39237 31.4541 2.49305 31.4541 2.49305Z" fill="#172654"/>
<path d="M34.9053 5.87271C34.9053 5.87271 33.9824 6.66506 33.2574 6.76561C32.4542 6.87702 31.2516 6.22813 31.2516 6.22813C31.2516 6.22813 32.3136 5.44259 33.1069 5.39083C33.8324 5.34349 34.9053 5.87271 34.9053 5.87271Z" fill="#172654"/>
<path d="M36.998 3.77969C36.998 3.77969 36.0752 4.57205 35.3502 4.67259C34.5469 4.784 33.3443 4.13511 33.3443 4.13511C33.3443 4.13511 34.4064 3.34957 35.1996 3.29781C35.9252 3.25047 36.998 3.77969 36.998 3.77969Z" fill="#172654"/>
<path d="M34.005 0.0553595C34.005 0.0553595 34.4572 1.15028 34.3296 1.85161C34.1882 2.62871 33.2219 3.54385 33.2219 3.54385C33.2219 3.54385 32.8184 2.32217 33.0119 1.57254C33.1889 0.886875 34.005 0.0553595 34.005 0.0553595Z" fill="#172654"/>
<path d="M31.7132 10.7612C31.7132 10.7612 30.5732 11.4818 29.7616 11.4753C28.8624 11.4681 27.6477 10.5625 27.6477 10.5625C27.6477 10.5625 28.9394 9.87186 29.8179 9.94285C30.6215 10.0078 31.7132 10.7612 31.7132 10.7612Z" fill="#172654"/>
<path d="M33.1333 11.335C33.1333 11.335 34.1322 11.9711 34.8567 12.0784C35.2688 12.1395 35.9235 12.0784 35.9235 12.0784V12.9044C35.9235 12.9044 34.8595 12.7495 34.2822 12.4088C33.754 12.0971 33.1333 11.335 33.1333 11.335Z" fill="#172654"/>
<path d="M32.0874 9.59106L35.9239 9.76545V10.463C35.9239 10.463 35.0815 10.1728 34.5172 10.027C33.5997 9.78998 32.0874 9.59106 32.0874 9.59106Z" fill="#FE0444"/>
<path d="M37.144 16.9131C37.144 16.9131 38.3453 15.788 38.3648 16.4006C38.373 16.6598 38.1032 17.0028 38.1032 17.0028C38.1032 17.0028 38.4792 17.3887 38.3648 17.6213C38.2789 17.7957 37.7902 17.8444 37.58 17.6213C37.4056 17.4363 37.3734 17.4 37.2312 17.0982C37.144 16.9131 37.144 16.9131 37.144 16.9131Z" fill="#172654"/>
<path d="M3.11244 67.5098C2.55875 67.5098 2.02135 67.4414 1.50023 67.3046C0.979107 67.1679 0.555698 66.9855 0.229998 66.7575L0.865112 65.3309C1.17127 65.5328 1.52628 65.6957 1.93015 65.8195C2.33402 65.9432 2.73137 66.0051 3.12221 66.0051C3.86481 66.0051 4.23611 65.8195 4.23611 65.4482C4.23611 65.2527 4.12862 65.1094 3.91366 65.0182C3.70521 64.9205 3.36649 64.8196 2.89748 64.7153C2.38287 64.6046 1.95295 64.4873 1.60771 64.3636C1.26247 64.2333 0.966079 64.0281 0.718548 63.748C0.471016 63.4679 0.34725 63.0901 0.34725 62.6146C0.34725 62.1977 0.461245 61.8231 0.689235 61.4909C0.917224 61.1522 1.25595 60.8851 1.70542 60.6897C2.1614 60.4943 2.71834 60.3966 3.37626 60.3966C3.82572 60.3966 4.26868 60.4487 4.70511 60.5529C5.14155 60.6506 5.52588 60.7972 5.85809 60.9926L5.26206 62.4289C4.61066 62.0772 3.9788 61.9013 3.36649 61.9013C2.98216 61.9013 2.70206 61.9599 2.52618 62.0772C2.3503 62.1879 2.26236 62.3345 2.26236 62.5169C2.26236 62.6993 2.36659 62.836 2.57504 62.9272C2.78348 63.0184 3.11895 63.1129 3.58145 63.2106C4.10257 63.3213 4.53249 63.4419 4.87122 63.5721C5.21646 63.6959 5.51285 63.8978 5.76038 64.1779C6.01443 64.4515 6.14145 64.8261 6.14145 65.3016C6.14145 65.712 6.02745 66.0833 5.79946 66.4155C5.57147 66.7477 5.22949 67.0148 4.77351 67.2167C4.31753 67.4121 3.76384 67.5098 3.11244 67.5098ZM17.7637 60.5334L15.5456 67.373H13.4742L12.1649 63.2106L10.7969 67.373H8.72549L6.50748 60.5334H8.50076L9.87847 64.901L11.3246 60.5334H13.1029L14.4806 64.9401L15.9169 60.5334H17.7637ZM23.9482 65.8781V67.373H18.4569V60.5334H23.8211V62.0283H20.372V63.1813H23.4108V64.6274H20.372V65.8781H23.9482ZM30.5131 65.8781V67.373H25.0218V60.5334H30.386V62.0283H26.9369V63.1813H29.9756V64.6274H26.9369V65.8781H30.5131ZM33.0425 62.0674H30.9418V60.5334H37.0682V62.0674H34.9772V67.373H33.0425V62.0674ZM45.215 63.8066H46.925V66.6402C46.5341 66.9203 46.0847 67.1353 45.5766 67.2851C45.0685 67.4349 44.5604 67.5098 44.0523 67.5098C43.3358 67.5098 42.6909 67.36 42.1176 67.0604C41.5444 66.7542 41.0949 66.3308 40.7692 65.7901C40.4435 65.2495 40.2807 64.6372 40.2807 63.9532C40.2807 63.2692 40.4435 62.6569 40.7692 62.1163C41.0949 61.5756 41.5477 61.1554 42.1274 60.8558C42.7072 60.5496 43.3618 60.3966 44.0914 60.3966C44.7297 60.3966 45.303 60.504 45.8111 60.719C46.3192 60.934 46.7426 61.2434 47.0813 61.6472L45.8502 62.7611C45.3877 62.253 44.834 61.999 44.1891 61.999C43.6028 61.999 43.1306 62.1781 42.7723 62.5364C42.414 62.8882 42.2349 63.3604 42.2349 63.9532C42.2349 64.331 42.3163 64.6697 42.4792 64.9694C42.642 65.2625 42.87 65.4938 43.1631 65.6631C43.4563 65.826 43.7917 65.9074 44.1695 65.9074C44.5408 65.9074 44.8893 65.8325 45.215 65.6827V63.8066ZM48.1515 60.5334H50.0862V67.373H48.1515V60.5334ZM54.4525 65.5556H53.3973V67.373H51.4626V60.5334H54.5893C55.2081 60.5334 55.7456 60.6376 56.2015 60.846C56.6575 61.048 57.0093 61.3411 57.2568 61.7254C57.5043 62.1032 57.6281 62.5494 57.6281 63.064C57.6281 63.5591 57.5108 63.9923 57.2763 64.3636C57.0484 64.7284 56.7194 65.015 56.2895 65.2234L57.7649 67.373H55.6934L54.4525 65.5556ZM55.6739 63.064C55.6739 62.7449 55.5729 62.4973 55.371 62.3214C55.1691 62.1456 54.8694 62.0576 54.4721 62.0576H53.3973V64.0607H54.4721C54.8694 64.0607 55.1691 63.976 55.371 63.8066C55.5729 63.6308 55.6739 63.3832 55.6739 63.064ZM58.6954 60.5334H60.6301V65.839H63.8936V67.373H58.6954V60.5334Z" fill="url(#paint1_linear)"/>
<defs>
<linearGradient id="paint0_linear" x1="14.7295" y1="27.9855" x2="50.2238" y2="27.9855" gradientUnits="userSpaceOnUse">
<stop stop-color="#E52D27"/>
<stop offset="1" stop-color="#B31217"/>
</linearGradient>
<linearGradient id="paint1_linear" x1="0" y1="63.8056" x2="64" y2="63.8056" gradientUnits="userSpaceOnUse">
<stop stop-color="#E52D27"/>
<stop offset="1" stop-color="#B31217"/>
</linearGradient>
</defs>
</svg>
