<svg width="28" height="23" viewBox="0 0 28 23" fill="none" xmlns="http://www.w3.org/2000/svg">
<path d="M27.1753 1.1072C25.4783 0.305145 23.7799 5.92918e-08 22.0825 5.92918e-08C16.6939 -0.000492906 11.3057 3.07314 5.9171 3.07314C4.56568 3.07314 3.21514 2.8799 1.86372 2.3968C1.71191 2.34257 1.55966 2.31694 1.41092 2.31694C0.65799 2.31694 0 2.97357 0 3.88506V19.5249C0 20.1475 0.316308 20.7376 0.824237 20.9771C2.52127 21.7797 4.21962 22.0848 5.9171 22.0848C11.3057 22.0848 16.6943 19.0112 22.0829 19.0112C23.4343 19.0112 24.7849 19.2044 26.1363 19.6875C26.2881 19.7418 26.4403 19.7674 26.5891 19.7674C27.342 19.7674 28 19.1108 28 18.1993V2.55997C27.9996 1.93686 27.6833 1.34727 27.1753 1.1072ZM13.9998 15.7749C12.0665 15.7749 10.4998 13.6556 10.4998 11.0424C10.4998 8.42872 12.0669 6.30995 13.9998 6.30995C15.9326 6.30995 17.4997 8.42872 17.4997 11.0424C17.4997 13.6566 15.9322 15.7749 13.9998 15.7749Z" fill="#E84146"/>
</svg>
