<svg width="30" height="27" viewBox="0 0 30 27" fill="none" xmlns="http://www.w3.org/2000/svg">
<path d="M14.2083 12.928C14.5696 13.3099 15.1579 13.3099 15.5244 12.928L21.1447 7.03413C22.7756 5.32067 22.6827 2.4821 20.8557 0.902828C19.2661 -0.475167 16.8972 -0.227438 15.4418 1.30023L14.8638 1.90407L14.2909 1.30539C12.8355 -0.227438 10.4666 -0.475167 8.87697 0.902828C7.05513 2.4821 6.95707 5.32067 8.58796 7.03413L14.2083 12.928ZM29.1753 16.933C28.5663 16.3808 27.6167 16.4169 26.9767 16.933L22.2079 20.747C21.6247 21.2166 20.897 21.4695 20.1435 21.4695H14.038C13.5838 21.4695 13.2122 21.0979 13.2122 20.6438C13.2122 20.1896 13.5838 19.818 14.038 19.818H18.0791C18.8997 19.818 19.6635 19.2555 19.7977 18.4452C19.968 17.413 19.1732 16.5149 18.1668 16.5149H9.90918C8.5157 16.5149 7.16867 16.9949 6.08486 17.8723L3.68498 19.818H0.825765C0.371594 19.818 0 20.1896 0 20.6438V25.5984C0 26.0525 0.371594 26.4241 0.825765 26.4241H19.2403C19.9887 26.4241 20.7164 26.1712 21.3047 25.7016L29.1082 19.4567C29.8927 18.8322 29.9546 17.6349 29.1753 16.933Z" fill="#E84146"/>
</svg>
